<svg enable-background="new 0 0 128 128" viewBox="0 0 128 128" xmlns="http://www.w3.org/2000/svg"><path d="m4 1.6h120v120h-120z" fill="none"/><path d="m112 79.3c0-5-2.6-9.5-6.5-11.7-.3-15.4-4.6-28-12.7-36.7-7.4-7.9-17.6-12.2-28.8-12.2s-21.5 4.3-28.9 12.3c-8.1 8.6-12.4 21.4-12.7 36.7-3.8 2.3-6.3 6.6-6.3 11.6 0 6.8 4.8 12.5 11 13.2 6.1 13.7 17.1 22.1 27.1 25.6 3.5 1.2 6.8 1.8 9.8 1.8 2.9 0 6.3-.7 9.7-1.9 9.8-3.4 20.8-11.8 27-25.5 6.3-.6 11.3-6.3 11.3-13.2z" fill="#d59d6d"/><path d="m20.4 111.7-2-66.8c0-22 20.5-38.8 42.5-38.8h6.4c22 0 42.3 16.8 42.3 38.8l-1.9 66.5z" fill="none"/><path d="m68.9 84.7c-.1-.1-.3-.1-.4-.1h-9.1c-.1 0-.3.1-.4.1-.8.3-1.3 1.2-.9 2.1s2.2 3.5 5.8 3.5 5.4-2.6 5.8-3.5c.5-.9.1-1.8-.8-2.1z"/><ellipse cx="42.9" cy="72.8" rx="6.3" ry="6.6"/><ellipse cx="85.1" cy="72.8" rx="6.3" ry="6.6"/><path d="m52.3 61c-1.2-1.6-4-3.9-9.4-3.9s-8.2 2.3-9.4 3.9c-.5.7-.4 1.5 0 2 .3.5 1.3.9 2.5.5 1.1-.4 3.3-1.5 7-1.5s5.8 1.2 7 1.5c1.1.4 2.1 0 2.5-.5.2-.5.3-1.3-.2-2z"/><path d="m94.5 61c-1.2-1.6-4-3.9-9.4-3.9s-8.2 2.3-9.4 3.9c-.5.7-.4 1.5 0 2 .3.5 1.3.9 2.5.5s3.3-1.5 6.9-1.5c3.7 0 5.8 1.2 6.9 1.5 1.1.4 2.1 0 2.5-.5s.5-1.3 0-2z"/><path d="m74.8 95.2c-4.1 2.4-17.5 2.4-21.6 0-2.3-1.4-4.8.7-3.8 2.9 1 2.1 8.3 7 14.6 7s13.5-4.9 14.5-7c1-2.2-1.3-4.3-3.7-2.9z"/><path d="m25.4 75.2c-.1-3.8-1.2-17.8 6.7-19.6 29-6.5 49.5-8.9 49.5-8.9s0-.2 10.3 19.2c9 17 10.2 20.9 10.2 20.9s1.9-3.9 4.1-10.6c2.7-8.3 4-22.5 4-22.5s4.3-48.2-46.1-48.2-49.3 46.2-49.3 46.2-.7 8.7 5.2 17.8"/></svg>